<svg width="88" height="44" viewBox="0 0 88 44" fill="none" xmlns="http://www.w3.org/2000/svg">
<circle cx="33.2886" cy="12.1817" r="12.1817" fill="#E6BE8A"/>
<path d="M15.7102 13.2021C14.4312 14.069 13.3253 14.069 12.4815 14.069C9.80244 14.069 7.63065 11.8972 7.63065 9.21816C7.63065 6.53911 9.80244 4.36732 12.4815 4.36732C12.5667 4.36732 12.6514 4.36951 12.7356 4.37385C11.3899 3.24072 9.65237 2.558 7.75543 2.558C3.48273 2.558 0.0190324 6.0217 0.0190324 10.2944C0.0190324 14.5671 3.48273 18.0308 7.75543 18.0308C10.8946 18.0308 14.4972 15.8887 15.7102 13.2021Z" fill="#E6BE8A"/>
<path d="M5.91491 14.1314C9.39629 20.6325 18.5489 11.3602 23.5558 4.86644L31.6197 3.99297L46.2034 9.23376C47.1705 14.9113 43.9387 26.2663 23.275 26.2663C2.61135 26.2663 -0.766044 14.9113 0.128216 9.23376L5.91491 14.1314Z" fill="#E6BE8A"/>
<circle cx="12.1817" cy="12.1817" r="12.1817" transform="matrix(-1 0 0 1 66.1945 0)" fill="#E6BE8A"/>
<path d="M71.5912 13.2021C72.8702 14.069 73.9761 14.069 74.8199 14.069C77.499 14.069 79.6708 11.8972 79.6708 9.21816C79.6708 6.53911 77.499 4.36732 74.8199 4.36732C74.7347 4.36732 74.65 4.36951 74.5659 4.37385C75.9116 3.24072 77.649 2.558 79.546 2.558C83.8187 2.558 87.2824 6.0217 87.2824 10.2944C87.2824 14.5671 83.8187 18.0308 79.546 18.0308C76.4068 18.0308 72.8042 15.8887 71.5912 13.2021Z" fill="#E6BE8A"/>
<path d="M81.3865 14.1314C77.9051 20.6325 68.7525 11.3602 63.7457 4.86644L55.6817 3.99297L41.098 9.23376C40.1309 14.9113 43.3627 26.2663 64.0264 26.2663C84.6901 26.2663 88.0675 14.9113 87.1732 9.23376L81.3865 14.1314Z" fill="#E6BE8A"/>
<path d="M13.3664 37.5351C13.3664 37.1753 13.2514 36.9054 13.0214 36.7255C12.7914 36.5374 12.467 36.4434 12.0481 36.4434H9.9412V38.6146H12.0357C12.4546 38.6146 12.7791 38.5246 13.0091 38.3447C13.2473 38.1566 13.3664 37.8867 13.3664 37.5351ZM8.27789 43.6438V35.0573H12.2821C12.8818 35.0573 13.3869 35.1595 13.7976 35.3639C14.2083 35.5602 14.5163 35.8301 14.7217 36.1735C14.9352 36.5088 15.042 36.8891 15.042 37.3143C15.042 37.6905 14.9722 38.0094 14.8325 38.2711C14.6929 38.5328 14.4999 38.7413 14.2535 38.8967C14.0153 39.0439 13.7401 39.1461 13.428 39.2034V39.3015C13.8058 39.3506 14.1303 39.4569 14.4013 39.6204C14.6724 39.7758 14.8818 39.9966 15.0297 40.2828C15.1775 40.569 15.2515 40.9166 15.2515 41.3255C15.2515 41.7752 15.1406 42.1759 14.9188 42.5276C14.697 42.871 14.3726 43.145 13.9455 43.3494C13.5265 43.5457 13.0214 43.6438 12.43 43.6438H8.27789ZM9.9412 42.2577H12.2082C12.6436 42.2577 12.9803 42.1637 13.2185 41.9756C13.4649 41.7793 13.5881 41.4972 13.5881 41.1292C13.5881 40.7449 13.4567 40.4545 13.1939 40.2583C12.9393 40.062 12.5984 39.9639 12.1713 39.9639H9.9412V42.2577Z" fill="#E6BE8A"/>
<path d="M33.9016 37.7068C33.9016 37.3225 33.7825 37.0158 33.5443 36.7869C33.3143 36.5579 32.9529 36.4434 32.46 36.4434H30.6242V38.9826H32.46C32.7886 38.9826 33.0596 38.9335 33.2732 38.8354C33.4868 38.7291 33.6428 38.5819 33.7414 38.3938C33.8482 38.1975 33.9016 37.9685 33.9016 37.7068ZM32.5093 35.0573C33.2075 35.0573 33.7825 35.1799 34.2342 35.4253C34.6942 35.6624 35.0351 35.9854 35.2568 36.3943C35.4868 36.795 35.6018 37.2325 35.6018 37.7068C35.6018 38.0258 35.5443 38.3447 35.4293 38.6636C35.3143 38.9744 35.1336 39.2606 34.8872 39.5223C34.6408 39.7758 34.3205 39.9802 33.9262 40.1356C33.5401 40.291 33.0678 40.3687 32.5093 40.3687H30.6242V43.6438H28.9609V35.0573H32.5093ZM33.4457 39.8167L35.7743 43.6438H33.9139L31.6838 39.8167H33.4457Z" fill="#E6BE8A"/>
<path d="M53.3468 43.7297C52.739 43.7297 52.1681 43.6234 51.6342 43.4108C51.1003 43.1982 50.6321 42.8997 50.2297 42.5153C49.8354 42.1228 49.5233 41.6608 49.2933 41.1292C49.0633 40.5895 48.9483 39.9966 48.9483 39.3506C48.9483 38.7045 49.0633 38.1157 49.2933 37.5842C49.5233 37.0526 49.8354 36.5906 50.2297 36.1981C50.6321 35.8055 51.1003 35.503 51.6342 35.2903C52.1681 35.0777 52.739 34.9714 53.3468 34.9714C53.9629 34.9714 54.5337 35.0777 55.0594 35.2903C55.5933 35.503 56.0615 35.8055 56.464 36.1981C56.8665 36.5906 57.1786 37.0526 57.4004 37.5842C57.6304 38.1157 57.7453 38.7045 57.7453 39.3506C57.7453 39.9966 57.6304 40.5895 57.4004 41.1292C57.1786 41.6608 56.8665 42.1228 56.464 42.5153C56.0615 42.8997 55.5933 43.1982 55.0594 43.4108C54.5337 43.6234 53.9629 43.7297 53.3468 43.7297ZM53.3591 42.3191C53.8766 42.3191 54.3366 42.1964 54.7391 41.9511C55.1498 41.6976 55.4701 41.35 55.7001 40.9084C55.9383 40.4668 56.0574 39.9475 56.0574 39.3506C56.0574 38.7536 55.9383 38.2343 55.7001 37.7927C55.4701 37.3511 55.1498 37.0076 54.7391 36.7623C54.3366 36.5088 53.8766 36.3821 53.3591 36.3821C52.8252 36.3821 52.353 36.5088 51.9423 36.7623C51.5398 37.0076 51.2235 37.3511 50.9936 37.7927C50.7636 38.2343 50.6486 38.7536 50.6486 39.3506C50.6486 39.9393 50.7636 40.4586 50.9936 40.9084C51.2235 41.3582 51.5398 41.7057 51.9423 41.9511C52.353 42.1964 52.8252 42.3191 53.3591 42.3191Z" fill="#E6BE8A"/>
<path d="M75.2932 43.7297C74.6854 43.7297 74.1145 43.6234 73.5806 43.4108C73.0467 43.1982 72.5785 42.8997 72.1761 42.5153C71.7818 42.1228 71.4697 41.6608 71.2397 41.1292C71.0097 40.5895 70.8947 39.9966 70.8947 39.3506C70.8947 38.7045 71.0097 38.1157 71.2397 37.5842C71.4697 37.0526 71.7818 36.5906 72.1761 36.1981C72.5785 35.8055 73.0467 35.503 73.5806 35.2903C74.1145 35.0777 74.6854 34.9714 75.2932 34.9714C75.9093 34.9714 76.4801 35.0777 77.0058 35.2903C77.5397 35.503 78.0079 35.8055 78.4104 36.1981C78.8129 36.5906 79.125 37.0526 79.3468 37.5842C79.5767 38.1157 79.6917 38.7045 79.6917 39.3506C79.6917 39.9966 79.5767 40.5895 79.3468 41.1292C79.125 41.6608 78.8129 42.1228 78.4104 42.5153C78.0079 42.8997 77.5397 43.1982 77.0058 43.4108C76.4801 43.6234 75.9093 43.7297 75.2932 43.7297ZM75.3055 42.3191C75.823 42.3191 76.283 42.1964 76.6855 41.9511C77.0962 41.6976 77.4165 41.35 77.6465 40.9084C77.8847 40.4668 78.0038 39.9475 78.0038 39.3506C78.0038 38.7536 77.8847 38.2343 77.6465 37.7927C77.4165 37.3511 77.0962 37.0076 76.6855 36.7623C76.283 36.5088 75.823 36.3821 75.3055 36.3821C74.7716 36.3821 74.2993 36.5088 73.8886 36.7623C73.4862 37.0076 73.1699 37.3511 72.9399 37.7927C72.71 38.2343 72.595 38.7536 72.595 39.3506C72.595 39.9393 72.71 40.4586 72.9399 40.9084C73.1699 41.3582 73.4862 41.7057 73.8886 41.9511C74.2993 42.1964 74.7716 42.3191 75.3055 42.3191Z" fill="#E6BE8A"/>
</svg>
