<svg width="88" height="27" viewBox="0 0 88 27" fill="none" xmlns="http://www.w3.org/2000/svg">
<circle cx="33.2886" cy="12.1817" r="12.1817" fill="#E6BE8A"/>
<path d="M15.7102 13.2021C14.4312 14.069 13.3253 14.069 12.4815 14.069C9.80244 14.069 7.63065 11.8972 7.63065 9.21816C7.63065 6.53911 9.80244 4.36732 12.4815 4.36732C12.5667 4.36732 12.6514 4.36951 12.7356 4.37385C11.3899 3.24072 9.65237 2.558 7.75543 2.558C3.48273 2.558 0.0190324 6.0217 0.0190324 10.2944C0.0190324 14.5671 3.48273 18.0308 7.75543 18.0308C10.8946 18.0308 14.4972 15.8887 15.7102 13.2021Z" fill="#E6BE8A"/>
<path d="M5.91491 14.1314C9.39629 20.6325 18.5489 11.3602 23.5558 4.86644L31.6197 3.99297L46.2034 9.23376C47.1705 14.9113 43.9387 26.2663 23.275 26.2663C2.61135 26.2663 -0.766044 14.9113 0.128216 9.23376L5.91491 14.1314Z" fill="#E6BE8A"/>
<circle cx="12.1817" cy="12.1817" r="12.1817" transform="matrix(-1 0 0 1 66.1945 0)" fill="#E6BE8A"/>
<path d="M71.5912 13.2021C72.8702 14.069 73.9761 14.069 74.8199 14.069C77.499 14.069 79.6708 11.8972 79.6708 9.21816C79.6708 6.53911 77.499 4.36732 74.8199 4.36732C74.7347 4.36732 74.65 4.36951 74.5659 4.37385C75.9116 3.24072 77.649 2.558 79.546 2.558C83.8187 2.558 87.2824 6.0217 87.2824 10.2944C87.2824 14.5671 83.8187 18.0308 79.546 18.0308C76.4068 18.0308 72.8042 15.8887 71.5912 13.2021Z" fill="#E6BE8A"/>
<path d="M81.3865 14.1314C77.9051 20.6325 68.7525 11.3602 63.7457 4.86644L55.6817 3.99297L41.098 9.23376C40.1309 14.9113 43.3627 26.2663 64.0264 26.2663C84.6901 26.2663 88.0675 14.9113 87.1732 9.23376L81.3865 14.1314Z" fill="#E6BE8A"/>
</svg>
