<svg width="26" height="25" viewBox="0 0 26 25" fill="none" xmlns="http://www.w3.org/2000/svg">
<path fill-rule="evenodd" clip-rule="evenodd" d="M22.7473 24.7646L18.3183 22.0882L13.1025 13.4238L7.88668 22.0882L3.45776 24.7646L12.072 11.712L8.15211 5.20031C7.63254 6.78362 6.1425 7.92698 4.38542 7.92698C2.19645 7.92698 0.421943 6.15248 0.421944 3.96351C0.421944 1.77454 2.19645 3.03629e-05 4.38542 3.05543e-05C6.08046 3.07025e-05 7.52699 1.06408 8.09348 2.56067L13.1025 10.1506L18.1115 2.56071C18.678 1.0641 20.1245 2.81155e-05 21.8196 2.82637e-05C24.0086 2.84551e-05 25.7831 1.77454 25.7831 3.96351C25.7831 6.15247 24.0086 7.92698 21.8196 7.92698C20.0625 7.92698 18.5725 6.78363 18.0529 5.20033L14.133 11.712L22.7473 24.7646Z" fill="#F5F5F5"/>
</svg>
